<svg xmlns="http://www.w3.org/2000/svg" id="prefix__Component_41_3" width="227" height="227" data-name="Component 41 – 3" viewBox="0 0 227 227">
    <defs>
        <clipPath id="prefix__clip-path">
            <path d="M0 0H11V57H0z" class="prefix__cls-1"/>
        </clipPath>
        <clipPath id="prefix__clip-path-2">
            <path d="M0 0H69V57H0z" class="prefix__cls-1"/>
        </clipPath>
        <style>
            .prefix__cls-1{fill:none}.prefix__cls-5{fill:#aab0d1}
        </style>
    </defs>
    <g id="prefix__Group_19648" data-name="Group 19648" transform="translate(-1588 -198)">
        <g id="prefix__Group_19685" data-name="Group 19685" transform="translate(1621 206)">
            <g id="prefix__Group_19523" data-name="Group 19523" transform="translate(-122 -971)">
                <g id="prefix__Group_18650" data-name="Group 18650" transform="translate(122.41 1003.748)">
                    <path id="prefix__Path_17533" d="M10 0h140a10 10 0 0 1 10 10v115a10 10 0 0 1-10 10H10a10 10 0 0 1-10-10V10A10 10 0 0 1 10 0z" data-name="Path 17533" transform="translate(-.41 .252)" style="fill:#3f4d98"/>
                </g>
                <g id="prefix__Group_18649" data-name="Group 18649" transform="translate(168.692 971)">
                    <path id="prefix__Path_16420" d="M-335.916 1171.307a33.157 33.157 0 0 1 32.444 34.419 33.213 33.213 0 0 1-34.062 32.119 33.294 33.294 0 0 1-32.483-34.528 33.224 33.224 0 0 1 34.101-32.01zm19.388 54.139a28.908 28.908 0 0 0 7.573-29.653 28.92 28.92 0 0 0-29.495-20.325 29.033 29.033 0 0 0-26.557 21.914c-2.969 11.655 1.89 22.411 7.7 27.685a21.264 21.264 0 0 1 11.783-12.952 20.388 20.388 0 0 1 17.463.162 21.361 21.361 0 0 1 11.533 13.169z" data-name="Path 16420" transform="translate(370.044 -1171.289)" style="fill:#a5aaca"/>
                    <path id="prefix__Path_16421" d="M-312.921 1229.05a21.361 21.361 0 0 0-11.534-13.17 20.387 20.387 0 0 0-17.463-.161 21.262 21.262 0 0 0-11.783 12.952c-5.808-5.274-10.668-16.03-7.7-27.685a29.033 29.033 0 0 1 26.557-21.914 28.921 28.921 0 0 1 29.495 20.325 28.909 28.909 0 0 1-7.572 29.653zm-20.433-18.718a16.95 16.95 0 0 0 2.686-.234 12.431 12.431 0 0 0 8.627-17.206 12.4 12.4 0 0 0-14.681-6.877 12.316 12.316 0 0 0-8.879 14.054c1.024 6.37 7.041 10.658 12.247 10.263z" data-name="Path 16421" transform="translate(366.437 -1174.893)" style="fill:#f4f4f4"/>
                    <path id="prefix__Path_16422" d="M-318.952 1216c-5.207.4-11.223-3.894-12.247-10.262a12.316 12.316 0 0 1 8.879-14.054 12.4 12.4 0 0 1 14.681 6.877 12.431 12.431 0 0 1-8.627 17.206 16.992 16.992 0 0 1-2.686.233z" class="prefix__cls-5" data-name="Path 16422" transform="translate(352.035 -1180.561)"/>
                </g>
                <g id="prefix__Group_19504" data-name="Group 19504">
                    <g id="prefix__Repeat_Grid_1" data-name="Repeat Grid 1" transform="translate(131 1050)">
                        <g transform="translate(-799 -347)">
                            <circle id="prefix__Ellipse_760" cx="5" cy="5" r="5" class="prefix__cls-5" data-name="Ellipse 760" transform="translate(799 347)"/>
                        </g>
                        <g transform="translate(-799 -324)">
                            <circle id="prefix__Ellipse_760-2" cx="5" cy="5" r="5" class="prefix__cls-5" data-name="Ellipse 760" transform="translate(799 347)"/>
                        </g>
                        <g transform="translate(-799 -301)">
                            <circle id="prefix__Ellipse_760-3" cx="5" cy="5" r="5" class="prefix__cls-5" data-name="Ellipse 760" transform="translate(799 347)"/>
                        </g>
                    </g>
                    <g id="prefix__Repeat_Grid_2" data-name="Repeat Grid 2" transform="translate(148 1050)">
                        <g transform="translate(-830 -347)">
                            <rect id="prefix__Rectangle_3788" width="64" height="6" class="prefix__cls-5" data-name="Rectangle 3788" rx="3" transform="translate(830 347)"/>
                        </g>
                        <g transform="translate(-830 -322)">
                            <rect id="prefix__Rectangle_3788-2" width="64" height="6" class="prefix__cls-5" data-name="Rectangle 3788" rx="3" transform="translate(830 347)"/>
                        </g>
                        <g transform="translate(-830 -297)">
                            <rect id="prefix__Rectangle_3788-3" width="64" height="6" class="prefix__cls-5" data-name="Rectangle 3788" rx="3" transform="translate(830 347)"/>
                        </g>
                    </g>
                    <path id="prefix__Path_17537" d="M7 0h27a7 7 0 0 1 7 7v42a7 7 0 0 1-7 7H7a7 7 0 0 1-7-7V7a7 7 0 0 1 7-7z" class="prefix__cls-5" data-name="Path 17537" transform="translate(231 1051)"/>
                    <path id="prefix__Path_18308" d="M559.71 139.908l-.014.1a6.855 6.855 0 0 1-2.794 4.382 14.5 14.5 0 0 1-7.055 2.228l-.056.006 9.785 7.607a1.442 1.442 0 0 1 .412.617 1.158 1.158 0 0 1-.236.981 1.53 1.53 0 0 1-.663.406 1.468 1.468 0 0 1-1.14-.2l-.043-.029-12.247-9.521a1.015 1.015 0 0 1-.113-.109 1.145 1.145 0 0 1 .243-1.748 3.643 3.643 0 0 1 1.767-.2 16.551 16.551 0 0 0 6.681-1.237 4.9 4.9 0 0 0 2.846-3.238l.01-.038h-11.765a1.281 1.281 0 0 1-1.281-1.08 1.24 1.24 0 0 1 1.2-1.243l.078-.006h11.757c-.614-2.6-3.757-4.328-6.871-4.654l-.081-.01h-4.8a1.283 1.283 0 0 1-1.281-1.1 1.255 1.255 0 0 1 .208-.713 1.393 1.393 0 0 1 1.009-.521h17.372c.123.006-.007-.1.5.093a1.221 1.221 0 0 1 .783 1 1.4 1.4 0 0 1-.141.607 1.347 1.347 0 0 1-1.065.623l-.074.006H556.8a7.321 7.321 0 0 1 2.907 4.644v.019h2.931s.1.006.2.016a1.24 1.24 0 0 1 1.083 1.08 1.4 1.4 0 0 1-.141.607 1.347 1.347 0 0 1-1.065.623h-.074z" data-name="Path 18308" transform="translate(-302.545 935.941)" style="stroke:#f4f4f4;stroke-width:.5px;fill-rule:evenodd;fill:#f4f4f4"/>
                </g>
            </g>
            <ellipse id="prefix__Ellipse_859" cx="68" cy="8" data-name="Ellipse 859" rx="68" ry="8" transform="translate(11 196)" style="fill:#eaecf7;stroke:transparent;opacity:.503"/>
        </g>
    </g>
    <path id="prefix__Rectangle_4141" d="M0 0H227V227H0z" class="prefix__cls-1" data-name="Rectangle 4141"/>
</svg>
